<svg xmlns="http://www.w3.org/2000/svg" viewBox="0 0 800 600" role="img" aria-labelledby="title desc">
  <title id="title">Product image</title>
  <desc id="desc">Protective equipment silhouette on a neutral industrial background.</desc>
  <defs>
    <linearGradient id="bg" x1="0" y1="0" x2="1" y2="1">
      <stop offset="0" stop-color="#f7f9fb"/>
      <stop offset="1" stop-color="#dfe7ef"/>
    </linearGradient>
    <linearGradient id="suit" x1="0" y1="0" x2="0" y2="1">
      <stop offset="0" stop-color="#2a4a73"/>
      <stop offset="1" stop-color="#1e3a5f"/>
    </linearGradient>
  </defs>
  <rect width="800" height="600" fill="url(#bg)"/>
  <path d="M120 520 260 170l92-44h96l92 44 140 350Z" fill="#fff" opacity=".8"/>
  <path d="M284 184 352 144l48 66 48-66 68 40 38 300H246Z" fill="url(#suit)"/>
  <path d="M352 144h96l-48 66Z" fill="#e63946"/>
  <path d="M314 228h172M300 292h200M286 356h228" stroke="#fff" stroke-width="18" stroke-linecap="round" opacity=".82"/>
  <path d="M248 184 178 312l52 32 54-100M552 184l70 128-52 32-54-100" fill="#1e3a5f"/>
  <circle cx="400" cy="104" r="58" fill="#fff"/>
  <path d="M360 102c0-27 18-46 40-46s40 19 40 46v32h-80Z" fill="#2a4a73"/>
  <path d="M250 486h300" stroke="#e63946" stroke-width="18" stroke-linecap="round"/>
</svg>
